{"title":"My Girlfriends Back 2011 DVDRip Xvid LKRG","uid":6192668,"size":1035066288,"categoryP":"video","categoryS":"movies","magnet":"?xt=urn:btih:a5ee4f7f2a61f9c12b9a4f53d4921d8897cbeb0e&amp;dn=My+Girlfriends+Back+2011+DVDRip+Xvid+LKRG&amp;tr=udp%3A%2F%2Ftracker.openbittorrent.com%3A80&amp;tr=udp%3A%2F%2Fopen.demonii.com%3A1337&amp;tr=udp%3A%2F%2Ftracker.coppersurfer.tk%3A6969&amp;tr=udp%3A%2F%2Fexodus.desync.com%3A6969","seeders":0,"leechers":1,"uploader":".BONE.","files":72,"time":1298345940,"description":" &lt;a href=&quot;http://www.grinshare.com/img/ILXALR.png&quot; rel=&quot;nofollow&quot; target=&quot;_NEW&quot;&gt;http://www.grinshare.com/img/ILXALR.png&lt;/a&gt;\n &lt;a href=&quot;\nhttp://www.grinshare.com/img/5U8EMF.png&quot; rel=&quot;nofollow&quot; target=&quot;_NEW&quot;&gt;\nhttp://www.grinshare.com/img/5U8EMF.png&lt;/a&gt;\n &lt;a href=&quot;\nhttp://www.grinshare.com/img/ZBOP7G.png&quot; rel=&quot;nofollow&quot; target=&quot;_NEW&quot;&gt;\nhttp://www.grinshare.com/img/ZBOP7G.png&lt;/a&gt;\n &lt;a href=&quot;\nhttp://www.grinshare.com/img/4IJJYJ.png&quot; rel=&quot;nofollow&quot; target=&quot;_NEW&quot;&gt;\nhttp://www.grinshare.com/img/4IJJYJ.png&lt;/a&gt;\n &lt;a href=&quot;\nhttp://www.grinshare.com/img/1H5TRH.png&quot; rel=&quot;nofollow&quot; target=&quot;_NEW&quot;&gt;\nhttp://www.grinshare.com/img/1H5TRH.png&lt;/a&gt;\n &lt;a href=&quot;\nhttp://www.grinshare.com/img/NQIDYW.png&quot; rel=&quot;nofollow&quot; target=&quot;_NEW&quot;&gt;\nhttp://www.grinshare.com/img/NQIDYW.png&lt;/a&gt;\n\nThis romantic comedy shows how a man's perfect life can unravel when a beautiful ex-girlfriend shows up out of the blue. The journey to love can be worth revisiting if the feelings are brought to life once again in this hilarious romp through the reality and complexity of relationships past and present\n &lt;a href=&quot;\nhttp://www.imdb.com/title/tt1233328/&quot; rel=&quot;nofollow&quot; target=&quot;_NEW&quot;&gt;\nhttp://www.imdb.com/title/tt1233328/&lt;/a&gt;\n\nFormat;AVI\n\nFile Size:912mb\n\nVideo\nID : 0\nFormat : MPEG-4 Visual\nFormat profile : Advanced Simple@L5\nFormat settings, BVOP : Yes\nFormat settings, QPel : No\nFormat settings, GMC : No warppoints\nFormat settings, Matrix : Custom\nCodec ID : XVID\nCodec ID/Hint : XviD\nDuration : 1h 19mn\nBit rate : 1 345 Kbps\nWidth : 680 pixels\nHeight : 368 pixels\nDisplay aspect ratio : 16:9\nFrame rate : 23.976 fps\nColor space : YUV\nChroma subsampling : 4:2:0\nBit depth : 8 bits\nScan type : Progressive\nBits/(Pixel*Frame) : 0.224\nStream size : 767 MiB (77%)\nWriting library : XviD 1.2.1 (UTC 2008-12-04)\n\nAudio\nID : 1\nFormat : AC-3\nFormat/Info : Audio Coding 3\nMode extension : CM (complete main)\nCodec ID : 2000\nDuration : 1h 19mn\nBit rate mode : Constant\nBit rate : 384 Kbps\nChannel(s) : 6 channels\nChannel positions : Front: L C R, Side: L R, LFE\nSampling rate : 48.0 KHz\nBit depth : 16 bits\nStream size : 219 MiB (22%)\nAlignment : Aligned on interleaves\nInterleave, duration : 42 ms (1.00 video frame)\nInterleave, preload duration : 512 ms\n\n\nDuration:1:21\n\nRelease Date:2011\n\nLanguage:English","torrent":{"xt":"urn:btih:a5ee4f7f2a61f9c12b9a4f53d4921d8897cbeb0e","amp;dn":"My+Girlfriends+Back+2011+DVDRip+Xvid+LKRG","amp;tr":["udp%3A%2F%2Ftracker.openbittorrent.com%3A80","udp%3A%2F%2Fopen.demonii.com%3A1337","udp%3A%2F%2Ftracker.coppersurfer.tk%3A6969","udp%3A%2F%2Fexodus.desync.com%3A6969"],"infoHash":"a5ee4f7f2a61f9c12b9a4f53d4921d8897cbeb0e","infoHashBuffer":{"type":"Buffer","data":[165,238,79,127,42,97,249,193,43,154,79,83,212,146,29,136,151,203,235,14]},"announce":[],"urlList":[]}}